# xmcd CD database file
#
# Track frame offsets:
#	150
#	14700
#	30287
#	40993
#	55007
#	60192
#	74006
#	83566
#	97618
#	111606
#	123751
#	137020
#	147491
#	158067
#	170856
#	179558
#	192509
#
# Disc length: 2716 seconds
#
# Revision: 0
# Processed by: cddbd v1.5.2PL0 Copyright (c) Steve Scherf et al.
# Submitted via: CDex 1.70beta2
#
DISCID=ec0a9a11
DTITLE=Lizz Fischer - At Last
DYEAR=1900
DGENRE=Jazz
TTITLE0=Tiny Dancer
TTITLE1=Unforgettable
TTITLE2=Blackbird
TTITLE3=All I Ask of You
TTITLE4=Fly Me To The Moon
TTITLE5=You Make Me Feel Like A Natural Woman
TTITLE6=Harmony Hill
TTITLE7=At Last
TTITLE8=Boulevard of Broken Dreams
TTITLE9=Poinciana
TTITLE10=Overjoyed
TTITLE11=Crazy
TTITLE12=Don't Get Around Much Anymore
TTITLE13=Till There Was You
TTITLE14=Revelation
TTITLE15=Imagine
TTITLE16=What A Wonderful World
EXTD=
EXTT0=
EXTT1=
EXTT2=
EXTT3=
EXTT4=
EXTT5=
EXTT6=
EXTT7=
EXTT8=
EXTT9=
EXTT10=
EXTT11=
EXTT12=
EXTT13=
EXTT14=
EXTT15=
EXTT16=
PLAYORDER=
